<svg id="OBJECTS" xmlns="http://www.w3.org/2000/svg" viewBox="0 0 431.5 334.98"><title>friend</title><rect y="330.51" width="58.61" height="4.47" rx="1.75" style="fill:#adbec4"/><rect x="365.16" y="330.51" width="58.61" height="4.47" rx="1.75" style="fill:#adbec4"/><rect x="76.68" y="330.51" width="58.61" height="4.47" rx="1.75" style="fill:#adbec4"/><rect x="146.58" y="330.51" width="92.63" height="4.47" rx="1.75" style="fill:#adbec4"/><rect x="249.67" y="330.51" width="89.63" height="4.47" rx="1.75" style="fill:#adbec4"/><path d="M308,338.79s15,40,15.94,52.66c0,0,3.77,3,10.2.34,0,0,.18-38.27-6.11-50.1S308,338.79,308,338.79Z" transform="translate(-281.56 -76.36)" style="fill:#ff8b66"/><path d="M304.73,409.06h31.64a14.53,14.53,0,0,0-.7-9.24s1.39-5.46.85-7.26-7-4-8.79-2.12a5.1,5.1,0,0,0-1.2,3.9c-.88-5-3.16-5.43-5.37-3.46s.49,1,0,4.29a3.16,3.16,0,0,1-.18.67,3.5,3.5,0,0,1-.86,1.26,6.56,6.56,0,0,1-1.26.94,8.22,8.22,0,0,1-.78.42,11.47,11.47,0,0,1-1.68.63,16.39,16.39,0,0,1-3,.56c-4.33.4-6.06.71-8.06,3s-.73,4-.73,4Z" transform="translate(-281.56 -76.36)" style="fill:#cfd8dc"/><path d="M321,395.84a3.5,3.5,0,0,1-.86,1.26,3.74,3.74,0,0,1,4.38.9l.81-1C323.39,394.53,321.21,395.73,321,395.84Z" transform="translate(-281.56 -76.36)" style="fill:#adbec4"/><path d="M321.68,400.32l1.1-.69a3.43,3.43,0,0,0-2.61-2.53,6.56,6.56,0,0,1-1.26.94A3.72,3.72,0,0,1,321.68,400.32Z" transform="translate(-281.56 -76.36)" style="fill:#adbec4"/><path d="M318.62,401.52l1.16-.58a3.6,3.6,0,0,0-1.65-2.48,11.47,11.47,0,0,1-1.68.63A3.76,3.76,0,0,1,318.62,401.52Z" transform="translate(-281.56 -76.36)" style="fill:#adbec4"/><path d="M372.59,401.47a6.75,6.75,0,0,0,2.38-2.71,27.41,27.41,0,0,0,0-7.65c-.62-3.92,1.09-7.13,6.64-8.33,5.4-1.17,8.6,1.43,7.35,12.28h0c.82,4.51,1,9.66-.88,14H371.47S368.85,403.44,372.59,401.47Z" transform="translate(-281.56 -76.36)" style="fill:#cfd8dc"/><path d="M358,343a50.42,50.42,0,0,0,6.1,21.92c6.22,11.31,13.91,26.83,13.91,26.83s5.12,5,8.38-3.28c0,0-2.3-28.82-7.57-39.37S358,343,358,343Z" transform="translate(-281.56 -76.36)" style="fill:#ff8b66"/><path d="M385.22,392.77s1.54-3.13.17-4.48-3,1.15-5.33.59-2.88-2.21-3.49.05S376.71,398.32,385.22,392.77Z" transform="translate(-281.56 -76.36)" style="fill:#cfd8dc"/><path d="M376.41,392.63s6.29,2.23,9.54,0l-.82,2.72s-6.83.73-7.78-1Z" transform="translate(-281.56 -76.36)" style="fill:#adbec4"/><path d="M376.5,396s5.75-.8,8.53.63V398s-7.5-1.75-9.93,0Z" transform="translate(-281.56 -76.36)" style="fill:#adbec4"/><path d="M385.3,400.79a5.22,5.22,0,0,0-4.61-2.91,9.14,9.14,0,0,0-5.87,1.73S380.38,397.32,385.3,400.79Z" transform="translate(-281.56 -76.36)" style="fill:#adbec4"/><path d="M383.7,340.14a16.66,16.66,0,0,1-1.87,3.13c-.15.21-.32.42-.5.64-3.46,4.28-11.07,10-25,4.36,0,0-.35-.8-.84-2.06-.08-.22-.17-.45-.27-.7a51.39,51.39,0,0,1-2.5-8.35c-3.63-20.16-5-34.77-6.9-43.06C340.51,307,328.53,332,328,333c-.67,1.33,2,9.93,2,9.93-10,3.26-24.33-.9-24.33-.9s-4.34-12.7-5-21.76c-.51-6.94,17-45.82,25.18-63.64.21-.47.42-.91.61-1.35,2.16-4.67,3.54-7.58,3.54-7.58l14,4.73,34,15.3s.6.69,1.16,7.7c0,.18,0,.38.05.56.32,4.17.62,10.42.8,19.78v.58q.06,3.06.1,6.57v.56c0,5.38.05,11.56,0,18.68,0,.19,0,.38,0,.58,0,2.21,0,4.5-.06,6.89,0,2.18,1.7,6.3,2.78,8.67.09.2.18.39.25.56C383.46,339.66,383.7,340.14,383.7,340.14Z" transform="translate(-281.56 -76.36)" style="fill:#0c476b"/><path d="M381.83,343.27c-.15.21-.32.42-.5.64-1.55-2.64-4-7.14-4.52-10.22-.81-4.42-1.2-21.8,0-40.09,1.16-17.73-2.74-35.12-2.78-35.3l.73-.16c0,.17,4,17.67,2.8,35.51-1.19,18.23-.81,35.53,0,39.9C378.07,336.4,380.31,340.64,381.83,343.27Z" transform="translate(-281.56 -76.36)" style="fill:#0e3944"/><path d="M376.55,273.58c-10.87-3.92-13.64-12.83-13.66-12.92l.71-.21c0,.08,2.71,8.64,13.21,12.42Z" transform="translate(-281.56 -76.36)" style="fill:#0e3944"/><path d="M336.46,253.66a3.74,3.74,0,0,1-1.6.25c-2.11.13-5.95.36-9,2.76.21-.47.42-.91.61-1.35a17.65,17.65,0,0,1,8.35-2.16,7,7,0,0,0,1.24-.13Z" transform="translate(-281.56 -76.36)" style="fill:#0e3944"/><path d="M345.51,294.27c-7.9-15.75,2.32-36.94,2.43-37.15l.67.33c-.1.21-10.16,21.07-2.43,36.49Z" transform="translate(-281.56 -76.36)" style="fill:#0e3944"/><path d="M344,278.89a4.43,4.43,0,0,1-1.21-.16L343,278a3.58,3.58,0,0,0,2.8-.39c1.15-.74,1.86-2.23,2.12-4.44.78-6.65,5.88-14.87,6.09-15.22l.64.4c-.05.08-5.22,8.42-6,14.91-.29,2.44-1.12,4.12-2.47,5A4.08,4.08,0,0,1,344,278.89Z" transform="translate(-281.56 -76.36)" style="fill:#0e3944"/><path d="M305.9,105.27s1.23-2.84,6.45-2.84c4,0,5.56,2.22,5.56,2.22,2.41,7,5,33.95,5.92,34.91.47.49,30.48,23.4,30.48,23.4-16.19.3-16.81,27.2-16.81,27.2-.53-6.55-23.1-23.07-28.84-33.86C303.32,146.25,300.74,121.65,305.9,105.27Z" transform="translate(-281.56 -76.36)" style="fill:#f2a668"/><path d="M403,201.39c-2.46,27.14-12.26,53.36-15.66,64.29-.73,2.36-1.17,3.68-1.17,3.68s-53.23-6.9-59.53-21.28c0,0,.1-.39.27-1.13,1.59-6.54,9.45-33,10.35-54.68,1-24.11,9.08-32.64,14-31.54,0,0,11,8.7,18.06,8.67s23.88-7.67,23.88-7.67S406,168.39,403,201.39Z" transform="translate(-281.56 -76.36)" style="fill:#ffb878"/><circle cx="87.8" cy="79.94" r="3.19" style="fill:#f24052"/><path d="M435.13,107.18s-1.23-2.85-6.45-2.85c-4,0-5.56,2.22-5.56,2.22-2.41,7-5,34-5.92,34.92-.47.48-30.48,23.4-30.48,23.4-.72,18.8,16.81,27.2,16.81,27.2.53-6.56,23.1-23.08,28.84-33.87C437.7,148.15,440.29,123.55,435.13,107.18Z" transform="translate(-281.56 -76.36)" style="fill:#f2a668"/><path d="M362.61,169s-2.92,1.16-3.51,2.43,1.64,6.48,5.93,6.88,12.47-4.57,12.13-6.17S370.72,168.48,362.61,169Z" transform="translate(-281.56 -76.36)" style="fill:#f2a668"/><path d="M362.19,163s1.6,6.61-.84,9.25c0,0,4,6.45,13-.06,0,0-1.72-4.35,0-7.17Z" transform="translate(-281.56 -76.36)" style="fill:#ef6e4b"/><path d="M387.7,145a3.24,3.24,0,0,0-2.63-3.19,3.25,3.25,0,0,0-2.21-5.54,3.24,3.24,0,0,0-2.72-5,3.22,3.22,0,0,0-2,.72,3.25,3.25,0,0,0-6-1.77,3.23,3.23,0,0,0-5.88-.56,3.24,3.24,0,0,0-5.47,2.11,3.25,3.25,0,0,0-5,2.75,3.08,3.08,0,0,0,.1.75h-.1a3.25,3.25,0,0,0-2.34,5.51A3.24,3.24,0,0,0,353,147a3.24,3.24,0,0,0,1.48,5.85,6.66,6.66,0,0,0,2.94,4.08c1.47,1.36,13.47,2.72,19.21,2.24a3.25,3.25,0,0,0,5.58-2.26v0a3.24,3.24,0,0,0,2.92-3.22,3.09,3.09,0,0,0-.13-.86,3.26,3.26,0,0,0,2-3,3.22,3.22,0,0,0-.76-2.06A3.23,3.23,0,0,0,387.7,145Z" transform="translate(-281.56 -76.36)" style="fill:#f24052"/><path d="M379.88,151.1s3.4-3.39,3.82.58c.48,4.59-3.69,6.43-4.5,5S379.88,151.1,379.88,151.1Z" transform="translate(-281.56 -76.36)" style="fill:#ff8b66"/><path d="M356.09,151.34s-3.39-3.39-3.81.57c-.48,4.59,3.69,6.44,4.5,5S356.09,151.34,356.09,151.34Z" transform="translate(-281.56 -76.36)" style="fill:#ff8b66"/><path d="M368.35,167.73c7.53,0,11.79-4.92,11.79-19.69,0-7.61-3.88-12.29-12.32-12.29s-12,4.68-12,12.29C355.82,163.91,360.56,167.73,368.35,167.73Z" transform="translate(-281.56 -76.36)" style="fill:#ff8b66"/><path d="M358.32,153.31a1.79,1.79,0,1,0,1.95-1.07A1.6,1.6,0,0,0,358.32,153.31Z" transform="translate(-281.56 -76.36)" style="fill:#db614d"/><path d="M373.82,153.72a1.79,1.79,0,1,0,1.65-1.5A1.6,1.6,0,0,0,373.82,153.72Z" transform="translate(-281.56 -76.36)" style="fill:#db614d"/><path d="M361.64,145.39a.36.36,0,0,0,.28-.07,4.29,4.29,0,0,1,3-.59.39.39,0,0,0,.44-.3.38.38,0,0,0-.3-.44,5,5,0,0,0-3.62.73.37.37,0,0,0-.07.53A.33.33,0,0,0,361.64,145.39Z" transform="translate(-281.56 -76.36)" style="fill:#f24052"/><path d="M376.06,145.44a.38.38,0,0,0,.25-.13.38.38,0,0,0-.06-.53,5.06,5.06,0,0,0-3.6-.85.39.39,0,0,0-.31.43.38.38,0,0,0,.43.32,4.32,4.32,0,0,1,3,.68A.32.32,0,0,0,376.06,145.44Z" transform="translate(-281.56 -76.36)" style="fill:#f24052"/><path d="M362.42,149.65c0,.93.42,1.69.94,1.69s.94-.76.94-1.69-.42-1.7-.94-1.7S362.42,148.71,362.42,149.65Z" transform="translate(-281.56 -76.36)" style="fill:#1a4850"/><path d="M372.48,149.65c0,.93.42,1.69.94,1.69s.94-.76.94-1.69-.42-1.7-.94-1.7S372.48,148.71,372.48,149.65Z" transform="translate(-281.56 -76.36)" style="fill:#1a4850"/><path d="M376.79,139.37s-5.24-.36-16.76-1.19c0,0-4.21,4.38-3.91,15.18,0,0-6.74-19.45,12.94-19.45s10.82,19,10.82,19S380.45,143,376.79,139.37Z" transform="translate(-281.56 -76.36)" style="fill:#f24052"/><path d="M367.87,154.68l.56-.57-1.49-1.48c1.45-2,1.44-6.77,1.44-7h-.8s0,5.14-1.47,6.74l-.26.28Z" transform="translate(-281.56 -76.36)" style="fill:#db614d"/><path d="M372.87,157.14s-7.42.32-11.16-.67a5,5,0,0,0,5.08,5.66C372.87,162.41,372.87,157.14,372.87,157.14Z" transform="translate(-281.56 -76.36)" style="fill:#1a4850"/><path d="M312.87,101.71s-5.59.26-5.56,2.05,0,3.94,4.69,3.7,4.72-2.08,4.77-3.83S314.4,101.56,312.87,101.71Z" transform="translate(-281.56 -76.36)" style="fill:#ffb878"/><path d="M430.1,102.73s-5.59,0-5.66,1.75-.19,4,4.49,4,4.82-1.83,5-3.58S431.63,102.67,430.1,102.73Z" transform="translate(-281.56 -76.36)" style="fill:#ffb878"/><path d="M304.09,90.55A23.78,23.78,0,0,1,306.21,95c.55,3,.88,4.62,1.92,6s.49,3.78.49,3.78,4,2.08,7.44-.49c0,0-.36-2.39,0-3.06.7-1.36,2.94-2.08,3.7-4.81a21.6,21.6,0,0,1,3.07-5.8s-.66-1.42-1.86-.55-2,3.06-2.63,3.28a1.37,1.37,0,0,1-.4.09h0a1.6,1.6,0,0,1-1.32-.34.17.17,0,0,1-.08-.07c-1.1-1.27-1.35-5-1.31-6.7.07-2.33,0-5.55-1.44-5s-.12,1.84-1.22,7l-.54.07c-.1.37-1.07-3.12-1.31-6.39-.16-2.26-1.64-1.43-2-.72s.17,3,.27,4.59c.07,1.08.16,2.2.22,2.86l-.62.35c-2.25-3.91-1.48-5.53-2.79-5.61s-.83,3.22-.13,4.48a12.6,12.6,0,0,1,.82,2.78c-2.3-2.65-2.05-4-3.1-3.87S303.29,89.64,304.09,90.55Z" transform="translate(-281.56 -76.36)" style="fill:#ff8b66"/><path d="M314,96.67c.78-2.15,3.56-3.12,3.9-3.24a1.6,1.6,0,0,1-1.32-.34A3.91,3.91,0,0,0,314,96.67Z" transform="translate(-281.56 -76.36)" style="fill:#ef6e4b"/><path d="M437.13,91.29A23.78,23.78,0,0,0,435,95.74c-.55,3-.88,4.62-1.92,6s-.49,3.78-.49,3.78-4,2.07-7.44-.49c0,0,.36-2.39,0-3.07-.7-1.35-2.94-2.07-3.7-4.8a21.42,21.42,0,0,0-3.07-5.8s.66-1.42,1.85-.55,2,3.06,2.64,3.28a1.37,1.37,0,0,0,.4.09h0a1.6,1.6,0,0,0,1.32-.34.25.25,0,0,0,.08-.07c1.1-1.28,1.35-5,1.31-6.7-.07-2.34,0-5.56,1.44-5s.12,1.84,1.22,7l.54.07c.1.36,1.07-3.12,1.31-6.4.16-2.25,1.64-1.42,2-.71s-.17,3-.27,4.59c-.07,1.07-.16,2.2-.22,2.86l.62.35c2.25-3.91,1.48-5.53,2.79-5.61s.83,3.22.13,4.47a12.89,12.89,0,0,0-.82,2.79c2.3-2.65,2-4,3.1-3.87S437.93,90.37,437.13,91.29Z" transform="translate(-281.56 -76.36)" style="fill:#ff8b66"/><path d="M427.21,97.4c-.78-2.14-3.56-3.12-3.9-3.23a1.6,1.6,0,0,0,1.32-.34A3.9,3.9,0,0,1,427.21,97.4Z" transform="translate(-281.56 -76.36)" style="fill:#ef6e4b"/><path d="M387.33,265.68c-.73,2.36-1.17,3.68-1.17,3.68s-53.23-6.9-59.53-21.28c0,0,.1-.39.27-1.13C330.28,252.56,371.08,266.21,387.33,265.68Z" transform="translate(-281.56 -76.36)" style="fill:#f2a668"/><path d="M581.87,409.06h25.89c1.81-10.3-1.07-20.6-1.07-20.6l-11.84-2c-1.08,6.5-2.37,9.07-4.17,10.39h0c-1.31,1-2.88,1.27-4.83,1.94a6.21,6.21,0,0,0-4,3.72A11,11,0,0,0,581.87,409.06Z" transform="translate(-281.56 -76.36)" style="fill:#0e3944"/><path d="M581.84,402.48c6.38.8,20.41,2.17,19.55-1.53-.71-3.09-6.63-3.92-10.71-4.13h0c-1.31,1-2.88,1.27-4.83,1.94A6.21,6.21,0,0,0,581.84,402.48Z" transform="translate(-281.56 -76.36)" style="fill:#205260"/><path d="M668.58,409.06h25.89a11.92,11.92,0,0,0,.45-5,6.28,6.28,0,0,0-4.41-5.31c-2.24-.77-4-1.06-5.37-2.38s-2.68-4.11-3.64-9.95l-11.84,2S666.78,398.76,668.58,409.06Z" transform="translate(-281.56 -76.36)" style="fill:#0e3944"/><path d="M694.92,404.07a6.28,6.28,0,0,0-4.41-5.31c-2.24-.77-4-1.06-5.37-2.38-3.28,1-7.86,2.86-9.28,5.67C673.88,405.9,689,405.29,694.92,404.07Z" transform="translate(-281.56 -76.36)" style="fill:#205260"/><path d="M683.36,388.19s-2,6.43-14.87,2c0,0-9.58-72-11.06-73.54s-16.68-48.59-16.68-48.59H636s-15.2,47-16.68,48.59-11,73.54-11,73.54c-12.91,4.44-14.88-2-14.88-2l6.2-77.58,12.92-80,25.87,2.89,25.87-2.89,3.37,20.89.14.82,9.41,58.28Z" transform="translate(-281.56 -76.36)" style="fill:#8b383e"/><path d="M667.75,252.33a17.08,17.08,0,0,1-11.61-10.43l.72-.22a16.29,16.29,0,0,0,10.75,9.83Z" transform="translate(-281.56 -76.36)" style="fill:#662c33"/><path d="M640.15,261a3.46,3.46,0,0,1-2.62,1.09c0,1.93,0,4-.11,6h-.75a120.12,120.12,0,0,0-.54-17.06l.74-.09c0,.08.53,4.64.64,10.38a2.77,2.77,0,0,0,2.1-.84c2.47-2.61,1-10.15,1-10.22l.74-.14C641.43,250.4,642.89,258.07,640.15,261Z" transform="translate(-281.56 -76.36)" style="fill:#662c33"/><path d="M709.88,89.91a23.56,23.56,0,0,0-4.38,2.27c-2.23,2-3.48,3.16-5.14,3.62s-1.78,3.48-1.78,3.48-6.33,2.7-7.5-1.39c0,0,2.7-5.93,2.82-6.69.26-1.5-1.09-3.43-.06-6.07a21.51,21.51,0,0,0,1-6.47s1.37-.74,1.81.68-.27,3.63.12,4.2a1.69,1.69,0,0,0,.27.32l0,0a1.6,1.6,0,0,0,1.26.53h.1c1.65-.36,4.11-3.2,5.09-4.56,1.35-1.9,3.36-4.42,4.16-3.13s-1,1.54-3.23,6.31l.39.37c-.14.36,2.74-1.84,4.9-4.31,1.49-1.7,2.16-.15,2,.61s-1.91,2.26-3,3.5c-.71.82-1.46,1.66-1.91,2.16l.29.65c4.15-1.77,4.51-3.53,5.6-2.8s-1.27,3.07-2.58,3.65a12.11,12.11,0,0,0-2.34,1.73c3.43-.73,4.07-2,4.81-1.23S711.06,89.66,709.88,89.91Z" transform="translate(-281.56 -76.36)" style="fill:#ff8b66"/><path d="M698.27,88.81c.67-2.18-1-4.63-1.16-4.93a1.6,1.6,0,0,0,1.26.53A3.9,3.9,0,0,1,698.27,88.81Z" transform="translate(-281.56 -76.36)" style="fill:#ef6e4b"/><path d="M515.52,126.92a23.67,23.67,0,0,1,4.9.51c2.83,1.08,4.4,1.66,6.11,1.48s2.94,2.58,2.94,2.58,6.88.18,6.46-4.05c0,0-4.69-4.53-5.08-5.18-.79-1.31-.24-3.6-2.17-5.67a21.28,21.28,0,0,1-3.36-5.64s-1.55-.18-1.44,1.3,1.59,3.28,1.44,4a1.63,1.63,0,0,1-.13.39.06.06,0,0,0,0,0,1.63,1.63,0,0,1-1,1,.24.24,0,0,1-.1,0c-1.66.27-5-1.47-6.41-2.38-2-1.27-4.75-2.87-5-1.37s1.51,1.06,5.32,4.68l-.22.49c.26.27-3.22-.71-6.14-2.22-2-1-2.07.67-1.63,1.31s2.61,1.4,4,2.16c1,.5,2,1,2.56,1.3l0,.71c-4.5-.12-5.49-1.61-6.23-.54s2.31,2.39,3.75,2.45a11.93,11.93,0,0,1,2.8.75c-3.46.58-4.51-.36-4.92.62S514.32,127.13,515.52,126.92Z" transform="translate(-281.56 -76.36)" style="fill:#ff8b66"/><path d="M525.91,121.64c-1.43-1.78-.82-4.66-.73-5a1.63,1.63,0,0,1-1,1A3.9,3.9,0,0,0,525.91,121.64Z" transform="translate(-281.56 -76.36)" style="fill:#ef6e4b"/><path d="M700.29,100.58s-.69,2.53-1.81,6.35c-.45,1.56-1,3.33-1.56,5.24-.9,3-1.93,6.21-3,9.45-.59,1.77-1.2,3.53-1.82,5.23a89.86,89.86,0,0,1-4.69,11.1c-.21.39-.42.76-.62,1.1a23.47,23.47,0,0,1-2.51,3.3A86.63,86.63,0,0,1,677.6,149c-1.31,1.21-2.7,2.45-4.13,3.69-2.34,2-4.79,4.09-7.22,6.07-1.52,1.25-3,2.47-4.49,3.63-7.49,6-13.69,10.56-13.69,10.56l-11.18-22.84c3.19-2.16,9.07-5.78,15.22-9.48l4.36-2.63,6.5-3.87,4.45-2.62,4.67-2.75,2-1.15,1.36-2.64c1-1.93,2.46-4.77,4.14-8,.74-1.42,1.52-2.92,2.33-4.44,1.27-2.42,2.6-4.91,3.88-7.29.83-1.54,1.65-3,2.41-4.43,2.15-3.88,4-7,4.88-8.22A12,12,0,0,1,700.29,100.58Z" transform="translate(-281.56 -76.36)" style="fill:#cfd8dc"/><path d="M666.25,158.79c-1.52,1.25-3,2.47-4.49,3.63a42.58,42.58,0,0,0-9.65-21.76l4.36-2.63A47.22,47.22,0,0,1,666.25,158.79Z" transform="translate(-281.56 -76.36)" style="fill:#8bbddb"/><path d="M677.6,149c-1.31,1.21-2.7,2.45-4.13,3.69-2.61-9.9-7.41-15.69-10.5-18.56l4.45-2.62A43,43,0,0,1,677.6,149Z" transform="translate(-281.56 -76.36)" style="fill:#8bbddb"/><path d="M687.39,138c-.21.39-.42.76-.62,1.1a23.47,23.47,0,0,1-2.51,3.3,50.87,50.87,0,0,0-12.17-13.56l2-1.15,1.36-2.64A54.88,54.88,0,0,1,687.39,138Z" transform="translate(-281.56 -76.36)" style="fill:#8bbddb"/><path d="M693.9,121.62c-.59,1.77-1.2,3.53-1.82,5.23A64.89,64.89,0,0,0,679.55,117c.74-1.42,1.52-2.92,2.33-4.44A71.57,71.57,0,0,1,693.9,121.62Z" transform="translate(-281.56 -76.36)" style="fill:#8bbddb"/><path d="M698.48,106.93c-.45,1.56-1,3.33-1.56,5.24a39.11,39.11,0,0,0-11.16-6.88c.83-1.54,1.65-3,2.41-4.43A45.51,45.51,0,0,1,698.48,106.93Z" transform="translate(-281.56 -76.36)" style="fill:#8bbddb"/><path d="M605.83,156.06l-2,25.35s-7-1.87-15.79-4.54c-1.69-.51-3.44-1.05-5.21-1.61-3.13-1-6.34-2-9.44-3.14-1.69-.59-3.34-1.18-4.93-1.79a90.76,90.76,0,0,1-9.65-4.15,23.54,23.54,0,0,1-3.45-2.1c-.29-.22-.59-.47-.91-.75a78.31,78.31,0,0,1-7.34-7.51c-1.11-1.28-2.25-2.61-3.4-4-2.25-2.71-4.5-5.53-6.56-8.18-1.11-1.41-2.15-2.77-3.12-4-3.54-4.66-6-8.07-6-8.07.25-5.91,4.64-7.59,4.64-7.59,1.56,1,5.2,3.83,9.44,7.29l3.91,3.21c2.25,1.86,4.54,3.78,6.67,5.58l3.84,3.23,4.74,4,1.74,1.48,2.92.45,6.4,1,5,.8,6.84,1.12,5,.82C595.91,154.13,602.25,155.26,605.83,156.06Z" transform="translate(-281.56 -76.36)" style="fill:#cfd8dc"/><path d="M588,176.87c-1.69-.51-3.44-1.05-5.21-1.61a72.39,72.39,0,0,1,1.38-23.09l5,.82A68.24,68.24,0,0,0,588,176.87Z" transform="translate(-281.56 -76.36)" style="fill:#8bbddb"/><path d="M577.37,151.05a70.75,70.75,0,0,0-4,21.07c-1.69-.59-3.34-1.18-4.93-1.79a75.05,75.05,0,0,1,3.87-20.08Z" transform="translate(-281.56 -76.36)" style="fill:#8bbddb"/><path d="M565.93,149.24a94.12,94.12,0,0,0-7.12,16.94,23.54,23.54,0,0,1-3.45-2.1c-.29-.22-.59-.47-.91-.75a101.21,101.21,0,0,1,6.82-16l1.74,1.48Z" transform="translate(-281.56 -76.36)" style="fill:#8bbddb"/><path d="M556.53,143.27a99.3,99.3,0,0,0-9.42,12.55c-1.11-1.28-2.25-2.61-3.4-4a105.31,105.31,0,0,1,9-11.8Z" transform="translate(-281.56 -76.36)" style="fill:#8bbddb"/><path d="M546,134.46a92,92,0,0,0-8.87,9.2c-1.11-1.41-2.15-2.77-3.12-4a95.1,95.1,0,0,1,8.08-8.37Z" transform="translate(-281.56 -76.36)" style="fill:#8bbddb"/><path d="M672.77,236.68s-14,14.63-33,18.25a193.06,193.06,0,0,1-31.69,3.22s-.85-3.81-2.16-9.79c-.33-1.54-.7-3.23-1.09-5-.7-3.23-1.48-6.84-2.29-10.66q-.53-2.44-1.06-5c-.66-3.11-1.33-6.31-2-9.52-.34-1.65-.68-3.31-1-5-.83-4.07-1.64-8.1-2.38-11.92q-.51-2.59-1-5c-.87-4.58-1.6-8.72-2.13-12.09-.31-2-.55-3.73-.7-5.12,0-.5-.09-1-.12-1.37-.25-3.47-.38-6.69-.42-9.58,0-1.88,0-3.61,0-5.17.09-5.51.42-8.88.42-8.88,4-2.7,31.18,6,31.18,6S643.45,142.76,646.6,144a12.2,12.2,0,0,1,5.08,4.57,35,35,0,0,1,2.64,4.5,79.73,79.73,0,0,1,4.07,9.94c.58,1.72,1.15,3.52,1.71,5.38.92,3.07,1.78,6.3,2.61,9.62.41,1.68.82,3.39,1.21,5.11.74,3.24,1.44,6.53,2.08,9.81q.53,2.61,1,5.19c.55,3,1.07,5.88,1.54,8.7.31,1.82.6,3.61.87,5.34.61,3.85,1.14,7.44,1.59,10.62.27,2,.51,3.74.72,5.35C672.42,233.43,672.77,236.68,672.77,236.68Z" transform="translate(-281.56 -76.36)" style="fill:#cfd8dc"/><path d="M654.32,153.08c-6.08,6.2-16.79,15.33-29.11,17.79a42.25,42.25,0,0,1-8.14.71c-8,0-17.23-1.61-25.33-3.5,0-1.88,0-3.61,0-5.17,10.78,2.6,23.8,4.79,32.49,3.06,11.61-2.31,22-11.69,27.45-17.39A35,35,0,0,1,654.32,153.08Z" transform="translate(-281.56 -76.36)" style="fill:#8bbddb"/><path d="M660.1,168.4c-6.21,5.82-21.8,16.7-51.42,16.7a134.6,134.6,0,0,1-15.7-.95c-.31-2-.55-3.73-.7-5.12,43.15,5.35,61.91-11.48,66.11-16C659,164.74,659.54,166.54,660.1,168.4Z" transform="translate(-281.56 -76.36)" style="fill:#8bbddb"/><path d="M663.92,183.13c-12,6.77-36.59,18.18-65.6,18.18q-1.12,0-2.25,0-.51-2.59-1-5c30.1.87,56.17-11.7,67.6-18.22C663.12,179.7,663.53,181.41,663.92,183.13Z" transform="translate(-281.56 -76.36)" style="fill:#8bbddb"/><path d="M667,198.13c-10.42,5.69-37,18.47-67.54,20-.34-1.65-.68-3.31-1-5,31.11-1.45,58.65-15.32,67.55-20.26Q666.53,195.55,667,198.13Z" transform="translate(-281.56 -76.36)" style="fill:#8bbddb"/><path d="M669.41,212.17c-11.93,7-37.91,20-66.89,20.5q-.53-2.44-1.06-5c29.41-.26,56.38-14.44,67.08-20.85C668.85,208.65,669.14,210.44,669.41,212.17Z" transform="translate(-281.56 -76.36)" style="fill:#8bbddb"/><path d="M671.72,228.14c-12.29,6.85-39.46,20.25-64.05,20.25l-1.77,0c-.33-1.54-.7-3.23-1.09-5,25.06,1.17,54.87-14.13,66.19-20.54C671.27,224.74,671.51,226.53,671.72,228.14Z" transform="translate(-281.56 -76.36)" style="fill:#8bbddb"/><path d="M627.07,149.93s-.82,6.79,1.68,8.86c0,0-1.27,4.83-5,5.75-4.34,1.06-6.79-3.5-6.79-3.5s1.14-6.62-1.59-8.34Z" transform="translate(-281.56 -76.36)" style="fill:#ef6e4b"/><path d="M630.35,135.56s2.65-4.49-3.69-11.6c0,0-3-6.81-13.33-8.38s-18,9.71-18,15.91,3.67,0,3.67,0,.83,4.34,2,6.27c0,0-.39,6.24,3.55,6.25S630.35,135.56,630.35,135.56Z" transform="translate(-281.56 -76.36)" style="fill:#105e99"/><path d="M606.63,143.05s-4.11-2-3.29,1.68c1,4.31,5.3,4.72,5.6,3.15S606.63,143.05,606.63,143.05Z" transform="translate(-281.56 -76.36)" style="fill:#ff8b66"/><path d="M628.26,136s2-4.11,3.63-.64c1.83,4-1.38,7-2.57,5.88S628.26,136,628.26,136Z" transform="translate(-281.56 -76.36)" style="fill:#ff8b66"/><path d="M622.14,154.62c-6.84,2.29-12.19-.88-16.67-14.26-2.32-6.91-.23-12.32,7.42-14.89s12.3.59,14.61,7.5C632.33,147.35,629.19,152.25,622.14,154.62Z" transform="translate(-281.56 -76.36)" style="fill:#ff8b66"/><path d="M626.84,138.5a1.71,1.71,0,1,1-2.1-.38A1.52,1.52,0,0,1,626.84,138.5Z" transform="translate(-281.56 -76.36)" style="fill:#db614d"/><path d="M612.92,143.58a1.7,1.7,0,0,1-3.22.85,1.71,1.71,0,0,1,3.22-.85Z" transform="translate(-281.56 -76.36)" style="fill:#db614d"/><path d="M621.39,132.6a.34.34,0,0,1-.28,0,4.09,4.09,0,0,0-3-.07.36.36,0,0,1-.25-.68,4.88,4.88,0,0,1,3.53.11.35.35,0,0,1,.15.49A.37.37,0,0,1,621.39,132.6Z" transform="translate(-281.56 -76.36)" style="fill:#ffb878"/><path d="M608.53,136.91a.36.36,0,0,1-.27,0,.36.36,0,0,1-.17-.48,4.82,4.82,0,0,1,2.75-2.22.37.37,0,0,1,.45.25.35.35,0,0,1-.24.44,4.18,4.18,0,0,0-2.31,1.84A.37.37,0,0,1,608.53,136.91Z" transform="translate(-281.56 -76.36)" style="fill:#ffb878"/><path d="M622,136.42c.29.85.14,1.67-.33,1.83s-1.09-.41-1.37-1.25-.14-1.67.34-1.83S621.73,135.58,622,136.42Z" transform="translate(-281.56 -76.36)" style="fill:#1a4850"/><path d="M612.89,139.48c.29.85.13,1.67-.34,1.83s-1.08-.41-1.37-1.25-.13-1.67.34-1.83S612.61,138.63,612.89,139.48Z" transform="translate(-281.56 -76.36)" style="fill:#1a4850"/><path d="M615.93,148.56s6.29-1.25,8.89-3.77c0,0-.38,4.69-3.79,5.42A4.94,4.94,0,0,1,615.93,148.56Z" transform="translate(-281.56 -76.36)" style="fill:#1a4850"/><path d="M620.15,144.76a7.15,7.15,0,0,1-1.62.29l0-.77c.79,0,2-.3,2.1-.67,0-.13-.06-.35-.31-.61-1.69-1.77-3.68-7-3.76-7.24l.72-.27c0,.06,2,5.33,3.59,7a1.33,1.33,0,0,1,.47,1.42A1.75,1.75,0,0,1,620.15,144.76Z" transform="translate(-281.56 -76.36)" style="fill:#db614d"/><path d="M610.91,122.43c-15.27,5.67-6.1,20.08-6.1,20.08l2.22,2c-1-4.13-.28-6.42-.28-6.42a9.39,9.39,0,0,1-.86-6c1.94-1.64,6.7-4.73,15.49-5.67.07.07,2.37,2.43,2.62,4.72a22.26,22.26,0,0,1,5,7l.27-3.54S625.75,116.93,610.91,122.43Z" transform="translate(-281.56 -76.36)" style="fill:#ffb878"/><path d="M609.17,389.76l-6.73,1.57S591.92,335,589.5,329c-2.08-5.14-11-24.8-13.92-39.9a10.51,10.51,0,0,1-2.31-.33h0l-1-.21-1-.21c-.25,15.05-3.52,33.61-4.52,38.81-1.21,6.31-.56,63.7-.56,63.7l-6.91-.23c-13.11-46.47-6.19-63.93-6.19-63.93s-12-41.83-7.76-56.58A99.09,99.09,0,0,1,550.19,257c.14-.31.27-.61.42-.9a87.9,87.9,0,0,1,6.11-11.31l14,1.76.13-.23.41.08v4.41l1.78-.09.4,0h0l5.83-.31.8,0,5.1-.27s3.06,4.87,7.42,12.7l.49.9c1.55,2.81,3.25,6,5,9.4,7.05,13.65,4.64,52.83,4.64,52.83S613,341.63,609.17,389.76Z" transform="translate(-281.56 -76.36)" style="fill:#8bbddb"/><path d="M561.35,246.39c-.05.1-3.67,8.71-11.16,10.59.14-.31.27-.61.42-.9,6.72-2.09,10-9.88,10-10Z" transform="translate(-281.56 -76.36)" style="fill:#6097b2"/><path d="M593.14,263.65c-8.39-1.8-12.67-10.58-13.81-13.29-.2-.49-.3-.78-.31-.8l.71-.25s.14.4.4,1c1.2,2.78,5.13,10.47,12.52,12.43Z" transform="translate(-281.56 -76.36)" style="fill:#6097b2"/><path d="M573.26,288.76l-1-.21A59.76,59.76,0,0,1,567,273.39c-2.62-11.62,3.34-24,3.4-24.12l.68.33c-.06.12-5.91,12.27-3.35,23.63.11.48.22.95.33,1.4l.18.73A53.9,53.9,0,0,0,573.26,288.76Z" transform="translate(-281.56 -76.36)" style="fill:#6097b2"/><path d="M567.86,275.4h-.11l0-.75A1.62,1.62,0,0,0,569,274c.5-.56,1.56-2.36.7-6.77-1.15-5.92,3.23-16.29,3.42-16.73l.69.3c0,.1-4.48,10.6-3.37,16.29.89,4.56-.17,6.6-.88,7.41A2.35,2.35,0,0,1,567.86,275.4Z" transform="translate(-281.56 -76.36)" style="fill:#6097b2"/><path d="M568,191.76s2.23-4-.9-10.95-2.49-26.05,13.19-25.23c0,0,9.3-1.55,14,4.55s8.5,27.56,3.59,43.49S561.71,215.29,568,191.76Z" transform="translate(-281.56 -76.36)" style="fill:#f24052"/><path d="M585.23,250.05a32.3,32.3,0,0,1-28.51-5.28s-2.57-52.83,2.32-56.37c2.14-1.55,6.36-.31,10.43,1.58a78.36,78.36,0,0,1,10.27,6s9.11-1.29,16.29-.5c4.57.49,8.35,1.83,8.52,4.86C605,208.1,585.23,250.05,585.23,250.05Z" transform="translate(-281.56 -76.36)" style="fill:#ff8b66"/><path d="M596.42,195.55c-3.08-.32-3.65,2-6.73,3.13a42.88,42.88,0,0,1-8.19,2.13c-1.4.13-2.14,1.87-2.14,1.87s-.5-2.35-1.26-2.55-7.27-6.76-8.63-10.15a78.36,78.36,0,0,1,10.27,6s9.11-1.29,16.29-.5Z" transform="translate(-281.56 -76.36)" style="fill:#ef6e4b"/><path d="M556.2,396.48c.43-2.88-.64-4.92.12-6.31,1.16-2.14,2.38.57,2.38.57.1-3.27,5.57-3.26,6.12-1.77a9.33,9.33,0,0,0,.48,1.1c.34-.78.92-1.55,1.67-1.1,2.92,1.75-.71,6.27,1.95,9.56,3.38,4.19,1.3,10.53,1.3,10.53H554C552.11,400.17,555.78,399.34,556.2,396.48Z" transform="translate(-281.56 -76.36)" style="fill:#cfd8dc"/><path d="M566.22,395.4s-3.84-2-8.92.66l1-1.84a8.91,8.91,0,0,1,7.45-.53Z" transform="translate(-281.56 -76.36)" style="fill:#adbec4"/><path d="M566.89,398.45a14.54,14.54,0,0,0-10.54.77l.95-1.94s4.83-2.09,8.92-.53Z" transform="translate(-281.56 -76.36)" style="fill:#adbec4"/><path d="M612.14,396.48c-.42-2.88.64-4.92-.11-6.31-1.16-2.14-2.39.57-2.39.57-.1-3.27-5.57-3.26-6.12-1.77a9.33,9.33,0,0,1-.48,1.1c-.34-.78-.92-1.55-1.66-1.1-2.93,1.75.71,6.27-2,9.56-3.39,4.19-1.3,10.53-1.3,10.53h16.21C616.24,400.17,612.56,399.34,612.14,396.48Z" transform="translate(-281.56 -76.36)" style="fill:#cfd8dc"/><path d="M602.13,395.4s3.83-2,8.91.66l-1-1.84a8.9,8.9,0,0,0-7.45-.53Z" transform="translate(-281.56 -76.36)" style="fill:#adbec4"/><path d="M601.46,398.45a14.53,14.53,0,0,1,10.54.77l-1-1.94s-4.83-2.09-8.91-.53Z" transform="translate(-281.56 -76.36)" style="fill:#adbec4"/><path d="M578.56,178.45s1.17,14.11-2.76,16.12c0,0,2.9,5.35,10.68,2.1,0,0-1.32-7.26,3.83-15.87C593.75,175,578.56,178.45,578.56,178.45Z" transform="translate(-281.56 -76.36)" style="fill:#ef6e4b"/><path d="M592.73,173.61s2.92-3.4,3.59.26c.77,4.24-3,6.25-3.84,4.95S592.73,173.61,592.73,173.61Z" transform="translate(-281.56 -76.36)" style="fill:#ff8b66"/><path d="M570.62,175.52s-3.4-2.92-3.51.8c-.13,4.3,3.88,5.73,4.54,4.31S570.62,175.52,570.62,175.52Z" transform="translate(-281.56 -76.36)" style="fill:#ff8b66"/><path d="M583.17,189.89c7-.53,10.62-5.41,9.58-19.15-.54-7.08-4.48-11.15-12.33-10.55s-10.83,5.19-10.29,12.28C571.25,187.23,575.93,190.45,583.17,189.89Z" transform="translate(-281.56 -76.36)" style="fill:#ff8b66"/><path d="M572.82,177.19a1.67,1.67,0,1,0,1.75-1.14A1.5,1.5,0,0,0,572.82,177.19Z" transform="translate(-281.56 -76.36)" style="fill:#db614d"/><path d="M587.27,176.47a1.5,1.5,0,0,0,1.8,1.06,1.33,1.33,0,1,0-1.8-1.06Z" transform="translate(-281.56 -76.36)" style="fill:#db614d"/><path d="M575.31,169.79a.35.35,0,0,0,.42-.1,4.05,4.05,0,0,1,2.63-1.18.35.35,0,0,0,0-.7,4.64,4.64,0,0,0-3.14,1.44.35.35,0,0,0,0,.49Z" transform="translate(-281.56 -76.36)" style="fill:#f24052"/><path d="M585.47,167.92a.31.31,0,0,0,.19,0,4.07,4.07,0,0,1,2.77.77.35.35,0,0,0,.49,0,.36.36,0,0,0,0-.5,4.78,4.78,0,0,0-3.32-.95.36.36,0,0,0-.31.39A.33.33,0,0,0,585.47,167.92Z" transform="translate(-281.56 -76.36)" style="fill:#f24052"/><path d="M576.38,173.49c.06.87.51,1.55,1,1.51s.83-.77.76-1.64-.51-1.55-1-1.51S576.31,172.62,576.38,173.49Z" transform="translate(-281.56 -76.36)" style="fill:#1a4850"/><path d="M586.06,172.69c.07.87.51,1.55,1,1.51s.82-.77.75-1.64-.51-1.55-1-1.51S586,171.82,586.06,172.69Z" transform="translate(-281.56 -76.36)" style="fill:#1a4850"/><path d="M585.5,181.29s-4.32.94-6.65-.06c0,0,1.51,3.14,3.88,2.67A3.51,3.51,0,0,0,585.5,181.29Z" transform="translate(-281.56 -76.36)" style="fill:#1a4850"/><path d="M578.7,172.88s-.8-2.1-1.63-1.88-1.33,2.11-1.33,2.11l-1.3-.57,1.26.07s.5-2,1.34-2C578.22,170.48,578.7,172.88,578.7,172.88Z" transform="translate(-281.56 -76.36)" style="fill:#1a4850"/><path d="M585.53,172.62s.47-2.19,1.33-2.1,1.63,1.88,1.63,1.88l1.2-.76-1.24.26s-.79-1.87-1.62-1.81C585.64,170.18,585.53,172.62,585.53,172.62Z" transform="translate(-281.56 -76.36)" style="fill:#1a4850"/><path d="M581.71,178a1.91,1.91,0,0,0,.51.17l.14-.75c-.64-.12-.8-.49-.83-.79a.94.94,0,0,1,.41-.9c.13,0,.27,0,.43.24l.61-.46a1.1,1.1,0,0,0-1.32-.49,1.66,1.66,0,0,0-.88,1.68A1.54,1.54,0,0,0,581.71,178Z" transform="translate(-281.56 -76.36)" style="fill:#db614d"/><path d="M582.94,162.43s2.59-.84,3.68,3.11c1.87,6.86,3.23,18,7.67,23.52,3.22,4,5.19,2.37,5.19,2.37a16.32,16.32,0,0,0-.5-7.92c-1.38-3.95.37-18.18-4.69-23.38s-14-1.88-14-1.88-4.3-2.55-8.5,0-5.39,14-1.1,19.1c0,0-.22-4.31,1.65-6S575.28,160.31,582.94,162.43Z" transform="translate(-281.56 -76.36)" style="fill:#f24052"/><path d="M550,106.11c-1.62,5.19,2.35,7.54-.59,11.09-1.82,2.19-4.57.4-4.57.4a35.21,35.21,0,0,0-6.1-8c-1.62-1.59-.46-1.61-.46-1.61l-.49-.37c-1.21-.92-2.25-1.41-1.1-1.77s4.85,2,4.85,2c-4.25-4.73-5.85-4.25-4.73-4.74,1.53-.66,5.81,2.87,5.94,3-2-3.25-3.86-4.33-2.69-4.44s5.55,5.14,7.13,7.09c.36.44.57.72.57.72C548.84,105.17,550,106.11,550,106.11Z" transform="translate(-281.56 -76.36)" style="fill:#ff8b66"/><path d="M547.23,108.77c.36.44.57.72.57.72a3.68,3.68,0,0,0-.63,3.61A3.28,3.28,0,0,1,547.23,108.77Z" transform="translate(-281.56 -76.36)" style="fill:#ef6e4b"/><path d="M542,110.64c-.39-.36-2.6-2.48-3.65-2.66l-.49-.37C538.76,106.88,541.55,110.14,542,110.64Z" transform="translate(-281.56 -76.36)" style="fill:#ef6e4b"/><path d="M549.45,117.2s-.58,34.25-2.36,41.05c0,0,6.23,21.52,15.56,29.33,0,0,1.45,5.83-6.61,17.32,0,0-15.69-28.06-18.21-44.12l7-43.18Z" transform="translate(-281.56 -76.36)" style="fill:#ff8b66"/><path d="M570.07,190.26c.8,2.84,1.24,12.81,10.7,17.93s19.58-2.38,22.33-10.54c0,0,1.15-1.74,4.89,2.48,0,0,19.67,9.53,22.2,14.48s1,23.88-6.85,24.16-17.36-8.46-19.86-2.71-17.13,26.28-47.44,9.76c0,0-3.81-4.76-3.81-9s-1.94-32.28-1.94-32.28-11.17-3.23-8.37-29.6c0,0,7.7,4.26,7.5-9.81,0,0,6.35-3,8.45,8.87,1.41,7.92,9.24,13.7,9.24,13.7S568.85,186,570.07,190.26Z" transform="translate(-281.56 -76.36)" style="fill:#105e99"/><path d="M634.67,224.42c6.69-2.8,21.42-14.95,26.67-22l-3.15-2.92s-17.34,11.76-24,13.85S624,219.26,624.83,224,633.26,225,634.67,224.42Z" transform="translate(-281.56 -76.36)" style="fill:#ff8b66"/><path d="M666.83,192.53c-3.26,4.35-7.49,2.51-8.64,7-.72,2.76,2.34,3.95,2.34,3.95a35,35,0,0,1,10.07.25c2.24.38,1.58-.57,1.58-.57l.58.17c1.46.45,2.47,1,2.08-.13s-4.5-2.74-4.5-2.74c6.32.67,6.88,2.25,6.61,1.06-.36-1.63-5.73-3-5.89-3.08,3.84-.24,5.78.59,5.18-.42s-7.41-1.49-9.92-1.62l-.92,0C668.29,193,666.83,192.53,666.83,192.53Z" transform="translate(-281.56 -76.36)" style="fill:#ff8b66"/><path d="M666.32,196.37l-.92,0a3.69,3.69,0,0,1-2.55,2.63A3.29,3.29,0,0,0,666.32,196.37Z" transform="translate(-281.56 -76.36)" style="fill:#ef6e4b"/><path d="M667.89,201.73c.52.1,3.53.65,4.29,1.4l.58.17C672.82,202.13,668.54,201.77,667.89,201.73Z" transform="translate(-281.56 -76.36)" style="fill:#ef6e4b"/><path d="M478.31,270.1A85.79,85.79,0,0,1,491,244.41l12.72,2.11.13-.23,1,.21H505v0l13.14,2.62a123.14,123.14,0,0,1,9.41,25.43c3.76,14.88-7.49,52.49-7.49,52.49s6.34,17.65-8.33,63.65h-6.91s2.58-57.29,1.58-63.65c-.87-5.47-2-25.55-1.41-40.92a9,9,0,0,1-2.5.18h0c0,15.38-1.74,35.37-2.78,40.82-1.22,6.31-.57,63.69-.57,63.69l-6.91-.23c-13.11-46.47-6.18-63.92-6.18-63.92S474.05,284.86,478.31,270.1Z" transform="translate(-281.56 -76.36)" style="fill:#ff8b66"/><path d="M537.51,200.29c-.45-7.81-24.82-4.37-24.82-4.37s-15.81-11.07-20.7-7.53c-1.73,1.26-2.52,8.69-2.83,17.77-1.84,3.25-3.43,8.15-.16,12.6.06,13.34.67,26,.67,26A32.32,32.32,0,0,0,518.19,250s5.83-12.38,11.09-24.94c3.38-2.74,4.11-6.7,4-10C535.84,208.42,537.65,202.71,537.51,200.29Z" transform="translate(-281.56 -76.36)" style="fill:#0e3944"/><path d="M534.45,160.52c-7.07-12.07-25-10.59-31.06-2.72-7.4,9.52-3.47,31.69-3.47,31.69s17-14.2,27.25,5.21C527.17,194.7,542.37,174,534.45,160.52Z" transform="translate(-281.56 -76.36)" style="fill:#ffb878"/><path d="M489.16,396.48c.42-2.88-.64-4.92.11-6.31,1.16-2.14,2.39.57,2.39.57.1-3.27,5.57-3.26,6.12-1.77a9.33,9.33,0,0,0,.48,1.1c.34-.78.92-1.55,1.67-1.1,2.92,1.75-.72,6.27,1.94,9.56,3.39,4.19,1.3,10.53,1.3,10.53H487C485.06,400.17,488.74,399.34,489.16,396.48Z" transform="translate(-281.56 -76.36)" style="fill:#0e3944"/><path d="M499.18,395.4s-3.84-2-8.92.66l1-1.84a8.91,8.91,0,0,1,7.45-.53Z" transform="translate(-281.56 -76.36)" style="fill:#205260"/><path d="M499.84,398.45a14.53,14.53,0,0,0-10.54.77l1-1.94s4.83-2.09,8.92-.53Z" transform="translate(-281.56 -76.36)" style="fill:#205260"/><path d="M515.08,396.48c-.42-2.88.64-4.92-.11-6.31-1.16-2.14-2.39.57-2.39.57-.1-3.27-5.57-3.26-6.12-1.77a9.33,9.33,0,0,1-.48,1.1c-.34-.78-.92-1.55-1.67-1.1-2.92,1.75.72,6.27-1.94,9.56-3.39,4.19-1.3,10.53-1.3,10.53h16.21C519.18,400.17,515.5,399.34,515.08,396.48Z" transform="translate(-281.56 -76.36)" style="fill:#0e3944"/><path d="M505.06,395.4s3.84-2,8.92.66l-1-1.84a8.91,8.91,0,0,0-7.45-.53Z" transform="translate(-281.56 -76.36)" style="fill:#205260"/><path d="M504.4,398.45a14.53,14.53,0,0,1,10.54.77l-1-1.94s-4.83-2.09-8.92-.53Z" transform="translate(-281.56 -76.36)" style="fill:#205260"/><path d="M511.52,178.45a37,37,0,0,1-2.76,16.12s2.9,5.35,10.67,2.1c0,0-1.31-7.26,3.83-15.87C526.71,175,511.52,178.45,511.52,178.45Z" transform="translate(-281.56 -76.36)" style="fill:#ef6e4b"/><path d="M528.73,174.46s3.69-2.53,3.4,1.18c-.34,4.29-4.48,5.27-5,3.8S528.73,174.46,528.73,174.46Z" transform="translate(-281.56 -76.36)" style="fill:#ff8b66"/><path d="M506.87,170.61s-2.54-3.69-3.6-.12c-1.22,4.12,2.28,6.53,3.28,5.33S506.87,170.61,506.87,170.61Z" transform="translate(-281.56 -76.36)" style="fill:#ff8b66"/><path d="M515.31,187.74c6.91,1.29,11.65-2.5,14.17-16,1.3-7-1.45-11.93-9.19-13.38s-11.8,2.24-13.11,9.22C504.47,182.09,508.16,186.41,515.31,187.74Z" transform="translate(-281.56 -76.36)" style="fill:#ff8b66"/><path d="M508.57,172.8a1.67,1.67,0,1,0,2-.65A1.49,1.49,0,0,0,508.57,172.8Z" transform="translate(-281.56 -76.36)" style="fill:#db614d"/><path d="M522.72,175.83a1.67,1.67,0,1,0,1.77-1.1A1.49,1.49,0,0,0,522.72,175.83Z" transform="translate(-281.56 -76.36)" style="fill:#db614d"/><path d="M512.88,166.29a.35.35,0,0,0,.43,0,4.1,4.1,0,0,1,2.84-.47.34.34,0,0,0,.42-.26.35.35,0,0,0-.27-.42,4.67,4.67,0,0,0-3.4.58.36.36,0,0,0-.08.49Z" transform="translate(-281.56 -76.36)" style="fill:#ffb878"/><path d="M523.18,167.1a.3.3,0,0,0,.17.08,4,4,0,0,1,2.48,1.45.36.36,0,0,0,.49.11.36.36,0,0,0,.1-.49,4.66,4.66,0,0,0-3-1.77.34.34,0,0,0-.4.29A.36.36,0,0,0,523.18,167.1Z" transform="translate(-281.56 -76.36)" style="fill:#ffb878"/><path d="M513,170.14c-.16.86.09,1.63.57,1.71s1-.53,1.15-1.39-.09-1.62-.57-1.71S513.12,169.28,513,170.14Z" transform="translate(-281.56 -76.36)" style="fill:#1a4850"/><path d="M522.38,172c-.16.86.1,1.63.58,1.71s1-.53,1.15-1.39-.1-1.63-.57-1.71S522.54,171.18,522.38,172Z" transform="translate(-281.56 -76.36)" style="fill:#1a4850"/><path d="M519.77,180s-4.42-.2-6.42-1.77c0,0,.66,3.42,3.06,3.58A3.51,3.51,0,0,0,519.77,180Z" transform="translate(-281.56 -76.36)" style="fill:#1a4850"/><path d="M515.36,170.15s-.23-2.24-1.09-2.24-1.83,1.69-1.83,1.69l-1.11-.88,1.2.39s1-1.77,1.81-1.62C515.51,167.71,515.36,170.15,515.36,170.15Z" transform="translate(-281.56 -76.36)" style="fill:#1a4850"/><path d="M522,171.66s1-2,1.83-1.69,1.09,2.23,1.09,2.23l1.35-.42-1.25-.07s-.29-2-1.11-2.16C522.76,169.32,522,171.66,522,171.66Z" transform="translate(-281.56 -76.36)" style="fill:#1a4850"/><path d="M517,175.84a2,2,0,0,0,.45.29l.33-.68a.88.88,0,0,1-.59-1,1,1,0,0,1,.62-.77c.14,0,.26.1.36.35l.7-.29a1.08,1.08,0,0,0-1.14-.81,1.67,1.67,0,0,0-1.29,1.4A1.55,1.55,0,0,0,517,175.84Z" transform="translate(-281.56 -76.36)" style="fill:#db614d"/><path d="M506.42,173s-2.87-8.38,2.34-15.26,19.29-1.77,21.87,3.52-2.46,16-2.46,16,3.89-14.18-3.95-16.52c0,0-1,3.55-7.05,6.07s-9.56,2.11-9.56,2.11Z" transform="translate(-281.56 -76.36)" style="fill:#ffb878"/><path d="M531.19,195.75s8.88.16,30.65,22c3,3-.42,12.54-9.45,6.68-9.93-6.46-16.53-13.14-18.6-10.67C533.79,213.78,528.61,201.27,531.19,195.75Z" transform="translate(-281.56 -76.36)" style="fill:#ef6e4b"/><path d="M563.12,216.51c-.06-7.25-5.76-25.47-10.31-33l-3.89,1.82s4.34,20.49,3.77,27.45,1.63,11.65,6.32,12.68S563.14,218,563.12,216.51Z" transform="translate(-281.56 -76.36)" style="fill:#ff8b66"/><path d="M545.73,174.7c2.8,4.66-.5,7.88,3.19,10.63,2.29,1.71,4.55-.68,4.55-.68a35,35,0,0,1,4-9.23c1.21-1.93.08-1.68.08-1.68a6,6,0,0,1,.38-.47c1-1.18,1.85-1.91.65-2s-4.23,3.13-4.23,3.13c3-5.59,4.68-5.51,3.48-5.72-1.65-.28-5,4.16-5.07,4.3,1.22-3.65,2.72-5.13,1.56-5s-4.18,6.31-5.25,8.58l-.39.83C546.68,173.5,545.73,174.7,545.73,174.7Z" transform="translate(-281.56 -76.36)" style="fill:#ff8b66"/><path d="M549.09,176.62l-.39.83a3.68,3.68,0,0,1,1.48,3.36A3.29,3.29,0,0,0,549.09,176.62Z" transform="translate(-281.56 -76.36)" style="fill:#ef6e4b"/><path d="M554.65,177.19c.29-.45,1.94-3,2.92-3.45a6,6,0,0,1,.38-.47C556.88,172.77,554.94,176.6,554.65,177.19Z" transform="translate(-281.56 -76.36)" style="fill:#ef6e4b"/><path d="M495,187.71s-8.77-1.86-34.55,15.08c-3.58,2.35-2.16,12.35,7.87,8.47,11.05-4.29,19.39-9.54,20.91-6.7C489.22,204.56,496.39,193.63,495,187.71Z" transform="translate(-281.56 -76.36)" style="fill:#ef6e4b"/><path d="M459.44,201.29c1.55-7.09,10.86-23.75,16.85-30.18l3.44,2.57s-8.45,19.17-9.32,26.09-4,11.07-8.78,11.13S459.11,202.78,459.44,201.29Z" transform="translate(-281.56 -76.36)" style="fill:#ff8b66"/><path d="M485,163.93c-3.7,4-1.13,7.81-5.31,9.75-2.58,1.2-4.3-1.6-4.3-1.6a35.47,35.47,0,0,0-2.05-9.86c-.78-2.13.27-1.65.27-1.65-.09-.19-.18-.37-.28-.55-.7-1.35-1.42-2.24-.23-2.06s3.5,3.93,3.5,3.93c-1.8-6.09-3.45-6.36-2.23-6.31,1.66.06,4,5.09,4.08,5.24-.45-3.82-1.62-5.58-.51-5.17s2.79,7,3.38,9.47c.13.55.2.9.2.9C484.35,162.57,485,163.93,485,163.93Z" transform="translate(-281.56 -76.36)" style="fill:#ff8b66"/><path d="M481.35,165.12c.13.55.2.9.2.9a3.68,3.68,0,0,0-2.13,3A3.29,3.29,0,0,1,481.35,165.12Z" transform="translate(-281.56 -76.36)" style="fill:#ef6e4b"/><path d="M475.79,164.54c-.2-.5-1.28-3.36-2.15-4-.09-.19-.18-.37-.28-.55C474.51,159.76,475.63,163.91,475.79,164.54Z" transform="translate(-281.56 -76.36)" style="fill:#ef6e4b"/><path d="M489.56,242.16s-29.72,40.7-20.39,83.8c0,0,10.06,9.35,17.94,6.1s16.05,8.49,23.09,4.74,13.26-6.49,18.15-4.49S541.47,326,541.47,326s-3.64-47.65-21.7-79.13C519.77,246.83,505.06,253.56,489.56,242.16Z" transform="translate(-281.56 -76.36)" style="fill:#ffb878"/><path d="M501.87,398.53a13.37,13.37,0,0,1,1.94,10.53h-2.74A30.71,30.71,0,0,1,501.87,398.53Z" transform="translate(-281.56 -76.36)" style="fill:#07262d"/><path d="M405.41,287.94s5.43,17.07,18.68,40c0,0-2.27,24.26,35.34,69.25l5.19-2.85s-19.35-45.24-22.49-58.64-1.8-31.3-11.92-59.27Z" transform="translate(-281.56 -76.36)" style="fill:#ff8b66"/><path d="M428.35,253.51l-17.79-7.22c-3.1,9.87-11.08,17-10.45,32.49.32,7.67,5.3,15.53,5.3,15.53,21-.75,28.16-9.55,28.16-9.55L430.38,270S428.22,260,428.35,253.51Z" transform="translate(-281.56 -76.36)" style="fill:#ce364c"/><path d="M386.17,276.49s-.58,17.91,4.26,43.93c0,0-10.24,22.12,10.2,77.08l5.85-.95s-3.14-49.1-1.64-62.8,9.38-25.74,8.55-59.84Z" transform="translate(-281.56 -76.36)" style="fill:#ff8b66"/><path d="M428.35,253.52l-7,11.94-1.71,2.89L416,274.53,413.62,291l-.11.74-.05.36c-18-2.08-27.66,3.54-27.66,3.54l-.17-1.55-.05-.5-.1-.27c-1.68-4.92-4-18.22-1.24-27.27,4.57-14.81,12.78-13.41,19-21.67C403.26,244.42,428.35,253.52,428.35,253.52Z" transform="translate(-281.56 -76.36)" style="fill:#f24052"/><path d="M397.05,392.39s2.32,5.14,1.6,8.58c-.43,2.08-2.67,4.75-.87,8.09h14.05a6.91,6.91,0,0,0-1.68-7.25c-1.82-1.94-3.17-10.92-3.17-10.92-1.57.25-1.16,1.5-1.16,1.5s.05-4.24-3.5-3.67c-4.26.68-3.25,4.42-3.25,4.42A1.44,1.44,0,0,0,397.05,392.39Z" transform="translate(-281.56 -76.36)" style="fill:#0c476b"/><path d="M481.41,409.06H457.78s-.66-5,.38-6.7c1.5-2.42-3.69-7.78-3.69-7.78s3.15-3.93,5.94-1.7c0,0-.25-4.92,3.25-4.87,0,0,3.25,8.34,7,11.32a2.48,2.48,0,0,0,.26.19c2.81,2,7.85,2.53,9.83,5.28A5.08,5.08,0,0,1,481.41,409.06Z" transform="translate(-281.56 -76.36)" style="fill:#0c476b"/><path d="M414.61,291.33l-.22.71-.88-.26c-14.83-4.12-25,.73-27.88,2.35l-.05-.5-.1-.27a30.84,30.84,0,0,1,7.3-2.8,102.57,102.57,0,0,1,0-21.49c1.29-11.49,12.54-18.42,12.66-18.49l.38.65c-.09.05-8,5-11.17,13.3,10.44-.12,14.59-13.18,14.63-13.31l.72.22c0,.14-4.39,13.84-15.49,13.84h-.13a18.58,18.58,0,0,0-.86,3.88,102.06,102.06,0,0,0,0,21.22,40.75,40.75,0,0,1,20.11.66Z" transform="translate(-281.56 -76.36)" style="fill:#ce364c"/><path d="M422.25,256.91c0,.1-1,10.33-5.75,18.08l.64.39C422,267.49,423,257.08,423,257Z" transform="translate(-281.56 -76.36)" style="fill:#ce364c"/><path d="M454.53,252.31s-1.75,8.25-3.63,8.87-.25-4.24-.25-4.24-13-5.23-18.3-5.62S434.53,240.81,454.53,252.31Z" transform="translate(-281.56 -76.36)" style="fill:#0c476b"/><path d="M452.28,253.81s-13.69-6.25-23.16-5.75,13.16-31,18.78-27.75S454.78,249.81,452.28,253.81Z" transform="translate(-281.56 -76.36)" style="fill:#0c476b"/><path d="M418.36,193.37s1.34-3.44,8.13-4.06,12.76,6.42,11.46,10.58S418.36,193.37,418.36,193.37Z" transform="translate(-281.56 -76.36)" style="fill:#0c476b"/><path d="M429.12,163.56s-.47-8.75-8.66-10.13-14.68.63-11.81,12.38,1,16.43-4.37,17-5-5.76-5-5.76a7.06,7.06,0,0,0,4.75,7.92s-6.21.5-4,4.38,9.07,3.25,11.78,0c0,0,.2,2.64,3.57,1.69a2,2,0,0,1-1.24-2.19c.12-1.75,9.4,1.2,12.32-9.75s-2.91-12.75-2.91-12.75Z" transform="translate(-281.56 -76.36)" style="fill:#0e3944"/><path d="M444.7,198.29c-5-.23-5.16,4.72-2.62,9.55s26.84,26.7,30.59,22.58c1.44-1.59-2.73-8.89-2.73-8.89A192.88,192.88,0,0,1,454,205.28C449.89,200.59,447.29,198.41,444.7,198.29Z" transform="translate(-281.56 -76.36)" style="fill:#ff8b66"/><path d="M476,222.51c1.36-7.12-.64-26.11-3.61-34.38l-4.17,1s.22,21-1.72,27.65-.69,11.75,3.7,13.69S475.68,224,476,222.51Z" transform="translate(-281.56 -76.36)" style="fill:#ff8b66"/><path d="M463.34,183.55c4.53,3,2.93,7.33,7.45,8.23a2.83,2.83,0,0,0,2.23-.41,3.37,3.37,0,0,0,1.35-3.33,38.67,38.67,0,0,1-.1-8.89c.26-2.26-.65-1.54-.65-1.54,0-.21.09-.4.14-.6.36-1.48.85-2.51-.25-2.06-1.26.49-2.48,4.64-2.48,4.64.31-6.34,1.86-7,.68-6.65-1.61.44-2.7,5.89-2.74,6.05-.46-3.82.27-5.8-.71-5.15s-1.07,7.49-1.06,10c0,.57,0,.92,0,.92C463.68,182.07,463.34,183.55,463.34,183.55Z" transform="translate(-281.56 -76.36)" style="fill:#ff8b66"/><path d="M467.2,183.84c0,.57,0,.92,0,.92a3.69,3.69,0,0,1,2.77,2.4A3.29,3.29,0,0,0,467.2,183.84Z" transform="translate(-281.56 -76.36)" style="fill:#ef6e4b"/><path d="M472.47,182c.07-.53.45-3.56,1.15-4.36,0-.21.09-.4.14-.6C472.58,177,472.47,181.32,472.47,182Z" transform="translate(-281.56 -76.36)" style="fill:#ef6e4b"/><path d="M437.4,198s6.75-2.78,15,2.15a44.26,44.26,0,0,1,13.19,12.76s.08-14.69,2.57-17.14c0,0,3.08,3.7,6.91,4.38,0,0,9.83,20.36,3.58,33s-24.75,0-24.75,0Z" transform="translate(-281.56 -76.36)" style="fill:#0c476b"/><path d="M403.22,244.41s4.95-13,2.42-20.39c-4.31-12.66-1.95-23.36,2.58-26.52,7.34-5.11,22.68.73,22.68.73s14.94-1.58,16.47,3,5.09,22.92-2,32.73-17,25-17,25S407.22,256.94,403.22,244.41Z" transform="translate(-281.56 -76.36)" style="fill:#cfd8dc"/><path d="M411.83,252.31s-2.05,7-4.68,6.57-14-6.54-14-7.56,1.62-3.26,1.62-3.26-.63-5.38.75-5.88S411.83,252.31,411.83,252.31Z" transform="translate(-281.56 -76.36)" style="fill:#0c476b"/><path d="M435.82,195.75s15.58,27.08,14.83,61.19c0,0,7.08-1.88,8.42-14.63s-3.23-37.18-9.45-43.59C449.62,198.72,445.16,194.06,435.82,195.75Z" transform="translate(-281.56 -76.36)" style="fill:#105e99"/><path d="M422.65,194.63s11.63,41.55-10.82,57.68a26.07,26.07,0,0,1-16.18-7.9C388.9,237.06,398,197.5,398,197.5S410.05,189.55,422.65,194.63Z" transform="translate(-281.56 -76.36)" style="fill:#105e99"/><path d="M425,207.64s-.06-12.5-1.47-15.79-5.21,1.52-5.21,1.52S419.4,199.17,425,207.64Z" transform="translate(-281.56 -76.36)" style="fill:#0c476b"/><path d="M440.85,206.45S442.28,194.14,438,192s-4.33,5.52-4.33,5.52S437.43,197.12,440.85,206.45Z" transform="translate(-281.56 -76.36)" style="fill:#0c476b"/><path d="M428.62,181.22a37.06,37.06,0,0,1-2.13,16.22s4.48,6.62,8.76,2.26a42.7,42.7,0,0,1,5.2-16.58C443.67,177.22,428.62,181.22,428.62,181.22Z" transform="translate(-281.56 -76.36)" style="fill:#ef6e4b"/><path d="M421.75,181.51s-3.78-2.39-3.36,1.3c.5,4.28,4.67,5.11,5.12,3.62S421.75,181.51,421.75,181.51Z" transform="translate(-281.56 -76.36)" style="fill:#ff8b66"/><path d="M443.45,176.88s2.4-3.78,3.59-.26c1.38,4.08-2,6.62-3.08,5.45S443.45,176.88,443.45,176.88Z" transform="translate(-281.56 -76.36)" style="fill:#ff8b66"/><path d="M435.64,194.3c-6.86,1.53-11.74-2.08-14.75-15.52-1.55-6.94,1-12,8.71-13.7s11.88,1.81,13.43,8.74C446.26,188.26,442.73,192.71,435.64,194.3Z" transform="translate(-281.56 -76.36)" style="fill:#ff8b66"/><path d="M441.83,179.12a1.67,1.67,0,1,1-2-.57A1.49,1.49,0,0,1,441.83,179.12Z" transform="translate(-281.56 -76.36)" style="fill:#db614d"/><path d="M427.8,182.66a1.67,1.67,0,1,1-1.8-1A1.48,1.48,0,0,1,427.8,182.66Z" transform="translate(-281.56 -76.36)" style="fill:#db614d"/><path d="M437.05,172.86a.35.35,0,0,1-.19-.06,4.06,4.06,0,0,0-2.85-.36.35.35,0,1,1-.18-.68,4.69,4.69,0,0,1,3.42.46.35.35,0,0,1,.1.48A.34.34,0,0,1,437.05,172.86Z" transform="translate(-281.56 -76.36)" style="fill:#0e3944"/><path d="M424.13,175.75a.31.31,0,0,1-.18-.05.35.35,0,0,1-.12-.48,4.7,4.7,0,0,1,2.9-1.87.36.36,0,0,1,.41.28.35.35,0,0,1-.28.41,4,4,0,0,0-2.42,1.54A.37.37,0,0,1,424.13,175.75Z" transform="translate(-281.56 -76.36)" style="fill:#0e3944"/><path d="M437.35,176.63c.19.85,0,1.62-.51,1.73s-1-.5-1.2-1.35,0-1.63.51-1.74S437.16,175.77,437.35,176.63Z" transform="translate(-281.56 -76.36)" style="fill:#1a4850"/><path d="M427.82,178.76c.19.85,0,1.63-.51,1.73s-1-.49-1.2-1.35,0-1.63.51-1.73S427.63,177.91,427.82,178.76Z" transform="translate(-281.56 -76.36)" style="fill:#1a4850"/><path d="M431.16,186.54a12.11,12.11,0,0,0,6.59-2s.75,5.12-2.75,5.58C432.57,190.46,431.16,186.54,431.16,186.54Z" transform="translate(-281.56 -76.36)" style="fill:#1a4850"/><path d="M435,176.72s.16-2.24,1-2.27,1.89,1.62,1.89,1.62l1.07-.92-1.18.43s-1.05-1.73-1.87-1.55C434.71,174.28,435,176.72,435,176.72Z" transform="translate(-281.56 -76.36)" style="fill:#1a4850"/><path d="M428.35,178.47s-1.1-2-1.89-1.63-1,2.28-1,2.28l-1.36-.38,1.25-.11s.21-2,1-2.2C427.53,176.16,428.35,178.47,428.35,178.47Z" transform="translate(-281.56 -76.36)" style="fill:#1a4850"/><path d="M433.13,182.77l-.36-.67a.87.87,0,0,0,.56-1,.93.93,0,0,0-.65-.75c-.14,0-.26.11-.35.35l-.71-.26a1.08,1.08,0,0,1,1.12-.84,1.67,1.67,0,0,1,.39,3.16Z" transform="translate(-281.56 -76.36)" style="fill:#db614d"/><path d="M422.29,183.93a43,43,0,0,1-1.17-7.05,10.54,10.54,0,0,1,7.34-11,14.75,14.75,0,0,1,5.48-.58,8.51,8.51,0,0,1,7,5.1,48.61,48.61,0,0,1,3,9.2,23.19,23.19,0,0,0,.08-10.17c-1.14-6.16-6.16-11.28-17.91-8.75C416.15,162.89,411.83,175,422.29,183.93Z" transform="translate(-281.56 -76.36)" style="fill:#1a4850"/><path d="M436.93,163.81s-1.28,9.55-14.28,10.75c0,0,7.88-2.78,7.88-8.32,0,0-3.13,7.1-10.63,6.27C419.9,172.51,419.2,161.09,436.93,163.81Z" transform="translate(-281.56 -76.36)" style="fill:#1a4850"/><path d="M397.37,200.56c6.33,1.89,10.6,12.13,9.27,13.3s-31.2,6.94-31.2,6.94l18.19,26.25-3.07,4.48s-28.38-25.09-28.22-33.69S397.37,200.56,397.37,200.56Z" transform="translate(-281.56 -76.36)" style="fill:#ff8b66"/><path d="M393.71,246.26a62.61,62.61,0,0,1,6.44,1.06c2.49.62,5.81,1.25,5.91,1.76s-5.5,0-5.5,0,4.57,1.88,4.67,2.6-5.81-.52-5.81-.52,3.74,2.28,3.53,2.9-4.81-.93-4.81-.93a14.36,14.36,0,0,0,1.75,3.21s-.9.49-2.7-1.51-4.7-1.37-7-3.15S391.63,246,393.71,246.26Z" transform="translate(-281.56 -76.36)" style="fill:#ff8b66"/><path d="M398,197.5s11.12,1.28,11.62,17.67-24.35,11.15-24.35,11.15,6.07,7,4.19,14.75c0,0-6.76,0-6.55,3.34,0,0-10.42.65-20.6-13.48S366.49,201,398,197.5Z" transform="translate(-281.56 -76.36)" style="fill:#0c476b"/><path d="M454.41,213.21c.73,2.41.16,4.71-1.28,5.15s-3.19-1.16-3.92-3.57-.16-4.71,1.27-5.15S453.68,210.8,454.41,213.21Z" transform="translate(-281.56 -76.36)" style="fill:#0c476b"/><ellipse cx="418.36" cy="215.87" rx="4.98" ry="4.14" transform="translate(-97.5 547.84) rotate(-87.45)" style="fill:#0c476b"/><path d="M385.28,209.41c-2.68.6-5.26-.72-5.76-2.95s1.27-4.53,4-5.13,5.26.72,5.76,2.95S388,208.81,385.28,209.41Z" transform="translate(-281.56 -76.36)" style="fill:#105e99"/><path d="M398.33,403.89s3.83-5,11.67-1a2.55,2.55,0,0,1-3.34,2.83C403,405.06,400.83,407.72,398.33,403.89Z" transform="translate(-281.56 -76.36)" style="fill:#105e99"/><path d="M480.75,404.8c-5,2.42-15.42-3.32-15.42-3.32,1.65.28,4.12-1,5.59-2C473.73,401.54,478.77,402.05,480.75,404.8Z" transform="translate(-281.56 -76.36)" style="fill:#105e99"/></svg>